<svg viewBox="0 0 600 80" width="100%" xmlns="http://www.w3.org/2000/svg"><g transform="translate(-13.094853 -538.37894)"><circle cx="49.281742" cy="578.37897" fill="#00286c" r="30.769232"/><path d="m62.270534 579.67583s.009-.20968-1.02116-.32976c-5.37464-.62528-22.886584-2.02679-25.768944.90545 0 0-6.383904 6.69901 26.004448 10.95186 0 0 24.251989 2.45124 25.856965-2.25461 0 0 2.483144-3.09162-6.064309-5.07882-5.12232-1.1914-16.7318-2.70588-31.919096-1.98026 0 0 15.386832 1.41182 18.635048 3.7256 0 0 4.875808 2.55333-3.566656 2.74532 0 0-17.724384.41008-25.408744-4.15598 0 0-13.748656-6.36592 23.252448-4.5288z" fill="#fd4"/><g fill="#fff" transform="matrix(.12307692 0 0 .12307692 12.539846 537.40099)"><path d="m446.3712 344.13344c-17.53403 0-29.03801-10.77349-29.03801-28.12608v-48.76233h-8.76586l30.68278-28.85655v18.995h24.28986v9.86155h-24.47365v48.76233c0 18.08307 11.68778 19.36025 16.80118 19.36025 6.57438 0 8.21915-2.92195 10.77822-4.74818-.36759 4.74818-7.67247 13.51401-20.27452 13.51401z"/><path d="m383.90048 287.0483h-35.79855c1.27718-12.41828 7.48631-23.01151 18.99263-23.01151 8.94965 0 16.80592 7.67012 16.80592 23.01151m21.73079 8.58438c0-28.67394-18.44596-39.99766-37.25482-39.99766-27.39794 0-42.92195 22.46482-42.92195 44.74584 0 24.83887 17.71548 44.38055 42.55436 44.38055 22.2822 0 35.97764-15.524 36.34523-30.13373-3.83623 8.03535-15.89162 17.89691-28.30988 17.89691-19.17645 0-27.94228-17.53403-28.30753-33.05685 0-1.27836 0-2.92195 0-3.83506z"/><path d="m288.77701 343.84714c3.28954-1.64243 4.93197-3.1034 4.93197-7.6701v-46.38824c0-8.5844-1.64243-19.90811-17.16761-19.90811-6.757 0-13.33256 4.38408-16.25451 8.21915v58.0772c0 4.5667 1.82623 6.02767 4.74818 7.6701h-30.86542c2.92314-1.64243 4.74936-3.1034 4.74936-7.6701v-67.57471c0-5.84388-2.73934-7.12225-6.0277-8.03533l27.39558-4.01886v12.23682c5.11341-4.93079 14.97617-12.23682 27.02917-12.23682 14.6121 0 27.21415 9.49748 27.21415 26.6651v52.9638c0 4.5667 2.00768 6.02767 4.92961 7.6701z"/><path d="m173.69126 299.10367c.73048 22.46482-6.39058 36.16262-19.72432 36.8931-12.60205.18386-21.18527-13.69781-21.91695-35.06805-.54786-20.271 6.0277-36.5255 19.7255-36.89075 14.24567-.54787 21.36909 16.2545 21.91577 35.0657m22.28218.91312c0-22.82888-14.06303-44.19797-42.55436-44.38058-27.76083 0-42.91961 22.09956-42.91961 45.11105-.36522 18.995 11.1411 44.01534 42.55436 44.01534 25.75083 0 42.55438-20.82121 42.91961-44.74581z"/><path d="m204.32573 291.05773 10.09957 3.65243v-10.58028h5.77318v10.58028l10.10428-3.65243 1.92284 5.28776-10.39176 3.27659 6.44712 8.85066-4.7128 3.2707-6.25392-9.0439-6.25388 9.0439-4.71754-3.2707 6.44712-8.85066-10.39175-3.27659z"/><path d="m472.27752 260.16758c0-5.61414 4.23448-9.84978 9.66128-9.84978 5.36553 0 9.60001 4.23564 9.60001 9.84978 0 5.70957-4.23448 9.91341-9.60001 9.91341-5.4268 0-9.66128-4.20384-9.66128-9.91341m9.66128 11.88924c6.46362 0 11.9847-5.01913 11.9847-11.88924 0-6.80648-5.52108-11.82564-11.9847-11.82564-6.52252 0-12.0436 5.01916-12.0436 11.82564 0 6.87011 5.52108 11.88924 12.0436 11.88924m-2.50958-10.94785h2.38469l3.60766 5.92872h2.32105l-3.89041-6.02299c2.00765-.25095 3.5464-1.31724 3.5464-3.76437 0-2.69689-1.60001-3.88923-4.83065-3.88923h-5.20766v13.67659h2.06892zm0-1.75671v-4.23445h2.82534c1.44213 0 2.97851.31339 2.97851 2.00765 0 2.10191-1.56702 2.2268-3.32489 2.2268z"/></g></g><text fill="#00286c" x="281.42154" y="53.384941"><tspan fill="#00286c" x="281.42154" y="53.384941"/></text><g fill="#00286c"><path d="m143.0274 37.148735q0 3.197022-1.48315 5.883179-1.46667 2.686157-4.38354 4.268188-2.91687 1.582031-7.10267 1.582031-4.23523 0-7.16857-1.647949-2.93335-1.647949-4.36707-4.334106-1.41724-2.686157-1.41724-5.751343 0-3.081665 1.41724-5.751343 1.41724-2.686157 4.35059-4.317627 2.94982-1.647949 7.18505-1.647949 3.16407 0 5.63599.939331 2.4884.939331 4.08691 2.554321 1.59852 1.598511 2.42249 3.740845.82397 2.125855.82397 4.482422zm-7.02026 0q0-1.2854-.37903-2.340088-.37903-1.071167-1.15356-1.845703-.75806-.791016-1.86218-1.219482-1.10413-.444947-2.55433-.444947-2.76855 0-4.35058 1.614991-1.58203 1.61499-1.58203 4.235229 0 2.620239 1.58203 4.251709 1.59851 1.61499 4.35058 1.61499 1.89515 0 3.22998-.741577 1.33484-.758057 2.02698-2.076416.69214-1.334839.69214-3.048706z"/><path d="m153.64691 35.399467q0 .358887-.23926.452881-.23925.08545-.79467.08545h-2.29004q-.0171.256347-.13672.45288l1.83716 1.298829q.68359.46997.68359.717773 0 .273437-.3418.615234-.34179.341797-.79467.598145-.44434.256348-.63233.256348-.21362 0-.3418-.196534-.12817-.196533-.29052-.717773l-.66651-2.15332q-.0256 0-.11108.02563-.0769.01709-.12817.01709-.0598 0-.13672-.01709-.0684-.02563-.11109-.02563l-.71777 2.17041q-.15381.46997-.28198.666504-.11963.196533-.35034.196533-.23072 0-.66651-.256348-.43579-.256347-.76904-.598144-.33325-.341797-.33325-.581055 0-.136719.10254-.264893.11108-.136718.47851-.384521l1.95679-1.367188q-.11963-.264892-.13672-.45288l-2.34985.01709q-.45289 0-.70923-.09399-.24781-.09399-.24781-.461426 0-.512695.29053-1.230468.29053-.717774.61524-.717774.18798 0 .33325.08545.14526.07691.40161.281983l1.91406 1.469726q.15381-.170898.35034-.256347l-.71777-2.15332q-.19653-.581055-.19653-.717774 0-.341797.36743-.461426.36743-.119629.94849-.119629 1.23901 0 1.23901.546875 0 .111084-.0855.393067l-.0855.281982-.77759 2.230225q.17945.0769.39307.256347l1.83716-1.418457q.36743-.281982.44433-.333252.0769-.05127.23072-.05127.22216 0 .41015.162353.18799.162354.40161.734864.20508.546875.20508 1.016845z"/><path d="m181.97394 48.585503h-6.13037l-11.84876-12.722168v12.722168h-6.82251v-22.840577h6.11389l11.8158 12.65625v-12.65625h6.87195z"/><path d="m204.91339 48.585503h-17.22107v-22.840577h16.94092v4.581299h-10.05249v4.185791h9.59106v4.597779h-9.59106v4.877929h10.33264z"/><path d="m231.41241 31.298515h-8.37158v17.286988h-6.87195v-17.286988h-8.37158v-5.553589h23.61511z"/><path d="m267.55194 48.585503h-7.39929l-1.79627-4.053955q-.98877-2.224732-1.77978-3.24646-.79102-1.038208-1.54907-1.31836-.74158-.296631-1.9281-.296631h-.77454v8.915406h-6.88843v-22.840577h11.71692q2.83447 0 4.64722 1.153565 1.81274 1.153564 2.60376 2.801514.80749 1.647949.80749 3.131103 0 1.730347-.67566 2.93335-.65918 1.186523-1.40075 1.730346-.74158.543824-1.66443 1.038208 1.10412.642701 1.81274 1.532593.7251.873413 1.96106 3.55957zm-9.36035-15.622559q0-1.582031-1.03821-2.208252-1.03821-.626221-3.37829-.626221h-1.4502v5.504151h1.48315q2.52137 0 3.44422-.543823.93933-.560303.93933-2.125855z"/><path d="m286.91534 41.631157h-11.81579q.34607 1.532593 1.69739 2.504883 1.35131.97229 3.06518.97229 2.99927 0 6.62476-1.680908v3.674926q-1.30188.67566-3.16407 1.235962-1.8457.543823-4.71313.543823-3.09814 0-5.27344-1.153564-2.17529-1.153564-3.26294-3.131103-1.07116-1.97754-1.07116-4.482422 0-2.471924 1.07116-4.416504 1.08765-1.96106 3.26294-3.065186 2.1753-1.120605 5.27344-1.120605 2.04346 0 3.9386.889892 1.91162.873413 3.1311 2.883911 1.23596 1.994019 1.23596 5.158081zm-5.57006-2.93335q0-1.61499-.8075-2.5708-.79101-.972291-2.29065-.972291-1.48315 0-2.406.98877-.90638.97229-.90638 2.554321z"/><path d="m302.99933 43.691093q0 2.307129-1.69739 3.757325-1.68091 1.433715-5.00976 1.433715-1.86219 0-3.31238-.329589-1.4502-.34607-3.16407-.97229v-4.21875q1.49964.856933 2.60376 1.301879 1.10413.444947 2.42249.444947 2.22473 0 2.22473-1.219483 0-.411987-.32959-.725097-.31311-.32959-1.1206-.725098-.79102-.411987-2.12586-.97229-1.64795-.725098-2.80151-1.94458-1.15357-1.219483-1.15357-2.982788 0-1.252442.75806-2.406006.77454-1.153564 2.32361-1.878662 1.54907-.741577 3.74084-.741577.52735 0 1.33484.0824.82398.06592 2.05994.379028 1.25244.313111 2.37305.889893v4.103394q-.52735-.313111-.8899-.527344-.34607-.214234-.93933-.477905-.59326-.263672-1.40075-.461426-.79102-.214234-1.63147-.214234-1.02173 0-1.40076.395508-.37903.395508-.37903.791016 0 .411987.39551.774536.39551.346069 1.7633.873413 1.97754.758057 3.16407 1.565552 1.18652.791015 1.6809 1.746826.51087.955811.51087 2.25769z"/><path d="m324.68634 40.180962q0 2.504882-1.08765 4.465942-1.08764 1.96106-3.26294 3.098145-2.15881 1.137084-5.27343 1.137084-3.11463 0-5.28992-1.137084-2.15881-1.137085-3.24646-3.098145-1.07117-1.96106-1.07117-4.465942 0-1.895142.59326-3.444214.60975-1.549073 1.82923-2.735596 1.23596-1.203003 3.03222-1.845703 1.79627-.6427 4.15284-.6427 2.37304 0 4.18579.659179 1.82922.642701 3.01574 1.812745 1.20301 1.170043 1.81275 2.735595.60974 1.565552.60974 3.460694zm-6.24573 0q0-1.994019-.87341-3.114624-.85693-1.137085-2.50488-1.137085-1.63147 0-2.50489 1.137085-.85693 1.120605-.85693 3.114624 0 1.977539.87341 3.131103.87342 1.153565 2.48841 1.153565 1.64795 0 2.50488-1.137085.87341-1.153565.87341-3.147583z"/><path d="m345.46698 48.585503h-5.9491v-2.389527q-1.25244 1.351319-2.63672 2.026978-1.36779.659179-3.29589.659179-3.80677 0-4.92737-2.208251-1.12061-2.224732-1.12061-5.009766v-9.854736h5.9491v9.06372q0 1.367798.44495 2.406006.46142 1.021729 1.97753 1.021729 1.30188 0 2.05994-.741577.75806-.741578 1.54907-1.895142v-9.854736h5.9491z"/><path d="m364.02289 32.715752-2.19177 5.949096q-1.35132-1.2854-2.7356-1.2854-1.25244 0-2.17529.856934-.90638.840454-1.74683 3.131103v7.218018h-5.93262v-16.776123h5.93262v4.053955q.5603-1.499634 1.97754-2.91687 1.41724-1.433716 3.32886-1.433716 1.00525 0 1.74682.296631.75806.29663 1.79627.906372z"/><path d="m380.25519 47.810966q-.74158.280152-1.56555.527344-.82398.230713-1.86219.379029-1.02172.164794-2.24121.164794-2.75207 0-4.66369-.922851-1.89515-.939331-2.93335-2.340088-1.02173-1.417236-1.41724-2.883911-.39551-1.466675-.39551-2.58728 0-1.120606.39551-2.587281.41199-1.466674 1.41724-2.834472 1.00525-1.367798 2.90039-2.29065 1.91162-.922851 4.69665-.922851 1.86219 0 3.03223.263672 1.17004.263671 2.37305.708618v4.663696q-2.90039-.922852-4.53186-.922852-1.58204 0-2.818.955811-1.21948.955811-1.21948 2.966309 0 1.334838.60974 2.25769.60974.906372 1.54907 1.334839.93933.428467 1.87867.428467.88989 0 2.02697-.263672 1.13709-.263672 2.76856-.758057z"/><path d="m400.36017 41.631157h-11.8158q.34607 1.532593 1.69739 2.504883 1.35132.97229 3.06519.97229 2.99926 0 6.62475-1.680908v3.674926q-1.30188.67566-3.16406 1.235962-1.8457.543823-4.71314.543823-3.09814 0-5.27343-1.153564-2.1753-1.153564-3.26294-3.131103-1.07117-1.97754-1.07117-4.482422 0-2.471924 1.07117-4.416504 1.08764-1.96106 3.26294-3.065186 2.17529-1.120605 5.27343-1.120605 2.04346 0 3.9386.889892 1.91162.873413 3.13111 2.883911 1.23596 1.994019 1.23596 5.158081zm-5.57007-2.93335q0-1.61499-.8075-2.5708-.79101-.972291-2.29064-.972291-1.48316 0-2.40601.98877-.90637.97229-.90637 2.554321z"/><path d="m434.76935 46.871635q-1.41724.741578-2.90039 1.186524-1.48316.444946-2.99927.626221-1.49963.197753-3.11462.197753-2.98279 0-5.35584-.823974-2.35657-.823975-4.10339-2.422485-1.73035-1.614991-2.60376-3.757325-.85694-2.158813-.85694-4.729614 0-2.949829 1.02173-5.158081 1.02173-2.224731 2.85095-3.691406 1.84571-1.466675 4.1858-2.158814 2.35656-.708618 4.96032-.708618 3.88916 0 8.81653 1.730347v6.064453q-1.69739-1.054688-3.36182-1.746826-1.64794-.708618-3.88916-.708618-1.99401 0-3.72436.791015-1.73035.791016-2.78503 2.257691-1.05469 1.466674-1.05469 3.427734 0 1.730347.92285 3.180542.92285 1.433716 2.55432 2.290649 1.64795.840455 3.70789.840455 1.66443 0 3.14758-.395508 1.48315-.411988 2.4884-.906372 1.02173-.494385 2.0929-1.170044z"/><path d="m455.66534 41.631157h-11.81579q.34607 1.532593 1.69739 2.504883 1.35131.97229 3.06518.97229 2.99927 0 6.62476-1.680908v3.674926q-1.30188.67566-3.16407 1.235962-1.8457.543823-4.71313.543823-3.09814 0-5.27344-1.153564-2.17529-1.153564-3.26294-3.131103-1.07116-1.97754-1.07116-4.482422 0-2.471924 1.07116-4.416504 1.08765-1.96106 3.26294-3.065186 2.1753-1.120605 5.27344-1.120605 2.04346 0 3.9386.889892 1.91162.873413 3.1311 2.883911 1.23596 1.994019 1.23596 5.158081zm-5.57006-2.93335q0-1.61499-.8075-2.5708-.79101-.972291-2.29065-.972291-1.48315 0-2.406.98877-.90638.97229-.90638 2.554321z"/><path d="m476.54486 48.585503h-5.93262v-9.047242q0-1.384277-.46142-2.406005-.44495-1.038208-1.97754-1.038208-.7251 0-1.2854.280151-.54382.263672-.98877.692139-.42847.428466-.7251.823974-.29663.395508-.60974.840454v9.854737h-5.93262v-16.776123h5.93262v2.406005q1.40076-1.499633 2.80151-2.092895 1.41724-.609741 3.14759-.609741 6.03149 0 6.03149 7.218017z"/><path d="m493.35394 47.613213q-.92285.444946-2.55432.856933-1.61499.411987-3.09814.411987-6.41053 0-6.41053-6.262207v-6.690673h-2.68615v-1.038208l7.95959-8.107911h.67566v5.026246h5.66895v4.119873h-5.66895v5.372314q0 .939331.11536 1.516113.11535.576783.6427.97229.54382.379029 1.63147.379029 1.41723 0 3.72436-1.186524z"/><path d="m513.21173 41.631157h-11.81579q.34606 1.532593 1.69738 2.504883 1.35132.97229 3.06519.97229 2.99927 0 6.62475-1.680908v3.674926q-1.30188.67566-3.16406 1.235962-1.8457.543823-4.71313.543823-3.09815 0-5.27344-1.153564-2.17529-1.153564-3.26294-3.131103-1.07117-1.97754-1.07117-4.482422 0-2.471924 1.07117-4.416504 1.08765-1.96106 3.26294-3.065186 2.17529-1.120605 5.27344-1.120605 2.04345 0 3.9386.889892 1.91162.873413 3.1311 2.883911 1.23596 1.994019 1.23596 5.158081zm-5.57007-2.93335q0-1.61499-.80749-2.5708-.79102-.972291-2.29065-.972291-1.48316 0-2.40601.98877-.90637.97229-.90637 2.554321z"/><path d="m530.92719 32.715752-2.19178 5.949096q-1.35132-1.2854-2.73559-1.2854-1.25244 0-2.1753.856934-.90637.840454-1.74682 3.131103v7.218018h-5.93262v-16.776123h5.93262v4.053955q.5603-1.499634 1.97754-2.91687 1.41723-1.433716 3.32885-1.433716 1.00525 0 1.74683.296631.75806.29663 1.79627.906372z"/></g></svg>
